<svg width="445" height="303" viewBox="0 0 445 303" fill="none" xmlns="http://www.w3.org/2000/svg">
<g clip-path="url(#clip0_220_3)">
<path d="M444.089 0H0V302.854H444.089V0Z" fill="white"/>
<path d="M37.2063 72.3039C37.2763 102.364 38.6063 224.254 38.7663 254.744M38.9163 74.4339C38.8763 105.194 38.3963 225.814 38.1563 256.184" stroke="black" stroke-linecap="round"/>
<path d="M144.375 73.4544C144.525 103.584 144.045 224.094 143.995 254.234M143.205 72.6944C143.275 102.944 143.095 225.124 143.145 255.584" stroke="black" stroke-linecap="round"/>
<path d="M37.2331 254.543C54.9831 254.633 125.323 256.113 143.043 256.203M35.7131 256.553C53.9031 256.283 127.423 254.433 145.233 254.353" stroke="black" stroke-linecap="round"/>
<path d="M60.4052 203.548C61.4252 201.868 63.1152 199.988 66.3052 196.758ZM60.4052 203.548C61.9852 201.478 63.9652 198.958 66.3052 196.758ZM60.1352 209.948C65.2452 203.978 70.8752 199.358 73.2652 194.848ZM60.1352 209.948C65.2852 203.618 69.8252 198.558 73.2652 194.848ZM60.5352 215.588C65.5552 210.238 68.2452 204.898 78.9052 194.458ZM60.5352 215.588C67.1952 208.658 72.6252 200.838 78.9052 194.458ZM60.2752 221.988C69.6952 210.048 79.8352 202.488 83.8952 194.818ZM60.2752 221.988C68.1652 213.508 77.2752 203.728 83.8952 194.818ZM60.6652 227.628C68.3252 217.468 77.5852 210.408 89.5352 194.428ZM60.6652 227.628C70.2552 216.758 79.2952 204.348 89.5352 194.428ZM60.4052 234.028C70.5052 224.278 77.1952 213.908 94.5252 194.788ZM60.4052 234.028C69.5052 222.608 80.3752 210.578 94.5252 194.788ZM62.1152 238.158C70.2852 225.988 78.5952 216.858 100.165 194.388ZM62.1152 238.158C77.2952 221.598 91.6752 203.058 100.165 194.388ZM64.4752 241.538C72.8052 232.338 82.5252 220.538 105.155 194.748ZM64.4752 241.538C78.8652 226.808 91.0252 210.108 105.155 194.748ZM68.1452 243.408C77.4652 233.218 87.9852 218.678 112.105 192.848ZM68.1452 243.408C78.0952 231.868 88.0852 220.608 112.105 192.848ZM73.1352 243.768C85.2952 228.618 102.565 214.028 116.435 193.958ZM73.1352 243.768C81.5452 233.028 93.2552 221.628 116.435 193.958ZM78.1252 244.128C95.9152 226.818 111.385 207.718 120.115 195.828ZM78.1252 244.128C88.0952 231.108 99.0452 219.178 120.115 195.828ZM83.7652 243.738C97.4352 229.028 106.515 216.738 123.785 197.698ZM83.7652 243.738C97.2452 229.468 111.595 212.248 123.785 197.698ZM88.7552 244.098C95.1152 235.388 101.525 228.248 124.835 202.588ZM88.7552 244.098C101.315 229.068 115.545 213.928 124.835 202.588ZM93.7452 244.458C105.215 231.858 116.645 215.598 126.545 206.718ZM93.7452 244.458C103.385 232.918 112.405 221.958 126.545 206.718ZM99.3852 244.058C104.585 236.448 110.945 231.878 126.285 213.118ZM99.3852 244.058C106.305 234.988 114.365 227.188 126.285 213.118ZM104.375 244.418C111.315 237.448 119.645 228.238 126.025 219.518ZM104.375 244.418C111.555 238.268 117.105 230.468 126.025 219.518ZM110.015 244.028C116.235 239.138 121.635 230.698 126.415 225.158ZM110.015 244.028C113.285 239.888 117.515 236.498 126.415 225.158ZM114.345 245.138C118.305 241.198 120.015 239.338 124.845 233.068ZM114.345 245.138C118.635 241.088 122.455 235.488 124.845 233.068ZM71.0852 242.298C66.4652 239.398 61.7452 234.698 59.7652 232.458ZM71.0852 242.298C67.7552 240.318 65.2552 236.408 59.7652 232.458ZM77.4852 242.558C71.2652 239.968 70.4752 236.868 59.3652 226.808ZM77.4852 242.558C72.7752 238.058 68.6752 233.438 59.3652 226.808ZM83.1252 242.158C72.4452 236.028 65.3352 227.458 59.7252 221.828ZM83.1252 242.158C78.0452 238.418 73.8952 233.098 59.7252 221.828ZM89.5252 242.418C82.7652 234.268 74.2452 227.998 59.3352 216.178ZM89.5252 242.418C77.8352 232.308 65.1852 222.088 59.3352 216.178ZM95.9252 242.688C82.5052 231.628 70.6952 222.408 59.6952 211.198ZM95.9252 242.688C82.9852 233.048 72.5252 222.188 59.6952 211.198ZM101.565 242.288C86.6652 231.668 76.1652 218.498 59.3052 205.548ZM101.565 242.288C84.6552 227.888 69.9352 215.258 59.3052 205.548ZM107.965 242.548C92.4752 227.148 73.9152 213.978 59.6652 200.568ZM107.965 242.548C89.6452 226.948 70.8052 209.468 59.6652 200.568ZM112.855 241.498C98.4152 228.548 80.5052 212.958 61.5352 196.888ZM112.855 241.498C102.035 232.408 91.5152 221.718 61.5352 196.888ZM116.985 239.798C98.8852 222.938 77.1552 206.438 64.1552 193.868ZM116.985 239.798C100.515 225.308 83.9552 210.538 64.1552 193.868ZM121.875 238.738C109.815 228.088 101.135 217.938 69.0452 192.818ZM121.875 238.738C100.455 221.308 81.2652 204.088 69.0452 192.818ZM123.745 235.068C105.865 218.418 84.9152 200.748 72.4252 190.458ZM123.745 235.068C106.325 219.928 87.7552 205.468 72.4252 190.458ZM125.615 231.398C112.125 217.278 95.2152 204.408 78.8152 190.718ZM125.615 231.398C106.995 215.708 89.1952 199.398 78.8152 190.718ZM125.215 225.748C115.205 219.048 106.425 211.598 85.2152 190.978ZM125.215 225.748C116.095 216.468 105.805 209.828 85.2152 190.978ZM125.575 220.758C117.725 213.038 110.905 208.368 90.8652 190.588ZM125.575 220.758C115.425 212.028 106.155 202.958 90.8652 190.588ZM125.935 215.778C119.305 208.878 115.035 207.428 97.2552 190.848ZM125.935 215.778C118.945 208.838 111.505 201.508 97.2552 190.848ZM125.545 210.128C115.275 203.808 107.825 195.938 102.905 190.448ZM125.545 210.128C119.285 204.718 111.895 197.348 102.905 190.448ZM125.145 204.488C119.585 199.658 115.665 197.528 109.295 190.708ZM125.145 204.488C121.315 200.468 115.815 196.148 109.295 190.708Z" stroke="#C0C0FF" stroke-width="0.5" stroke-linecap="round"/>
<path d="M71.0251 192.678C86.6451 191.698 103.685 192.818 111.845 192.678M71.0251 192.678C80.6551 192.858 91.3551 191.928 111.845 192.678M71.0251 192.678C61.3351 191.478 60.0351 196.368 58.5651 205.138M71.0251 192.678C61.1151 194.488 56.7851 197.258 58.5651 205.138M111.845 192.678C119.125 192.298 124.945 197.318 124.305 205.138M111.845 192.678C120.585 190.768 125.385 198.108 124.305 205.138M124.305 205.138C125.645 211.518 124.775 218.658 124.305 230.068M124.305 205.138C123.425 212.408 123.755 219.848 124.305 230.068M124.305 230.068C122.735 237.948 118.305 242.878 111.845 242.538M124.305 230.068C126.545 239.958 121.425 241.568 111.845 242.538M111.845 242.538C101.355 240.888 88.9551 244.088 71.0251 242.538M111.845 242.538C98.7651 243.648 83.8351 243.728 71.0251 242.538M71.0251 242.538C60.9751 244.048 59.9651 238.428 58.5651 230.068M71.0251 242.538C63.3451 241.628 60.8151 239.118 58.5651 230.068M58.5651 230.068C58.6251 225.208 60.4551 218.688 58.5651 205.138M58.5651 230.068C58.2851 220.878 58.9951 211.228 58.5651 205.138" stroke="black" stroke-linecap="round"/>
<path d="M60.067 146.292C61.977 144.272 62.507 141.982 65.967 139.502ZM60.067 146.292C61.987 144.762 63.437 143.232 65.967 139.502ZM59.797 152.692C62.437 147.232 68.457 143.862 72.927 137.592ZM59.797 152.692C64.807 147.272 70.057 140.902 72.927 137.592ZM60.197 158.332C63.277 152.132 70.777 150.142 78.567 137.202ZM60.197 158.332C65.377 153.802 70.357 148.112 78.567 137.202ZM59.937 164.732C66.527 153.222 77.767 147.082 83.557 137.562ZM59.937 164.732C66.497 156.502 74.117 148.682 83.557 137.562ZM60.327 170.372C70.617 156.202 83.687 143.302 89.197 137.172ZM60.327 170.372C66.847 161.852 74.617 153.912 89.197 137.172ZM60.067 176.772C71.447 166.452 78.227 153.992 94.187 137.532ZM60.067 176.772C67.907 167.722 74.727 160.122 94.187 137.532ZM61.777 180.902C69.747 173.262 75.797 162.052 99.827 137.132ZM61.777 180.902C75.977 163.822 90.387 148.012 99.827 137.132ZM64.137 184.282C73.517 174.932 80.767 166.062 104.817 137.492ZM64.137 184.282C79.787 167.922 93.657 149.402 104.817 137.492ZM67.807 186.152C78.027 170.152 93.267 157.902 111.767 135.592ZM67.807 186.152C80.437 173.082 92.517 158.682 111.767 135.592ZM72.797 186.512C84.077 174.082 97.637 161.142 116.097 136.702ZM72.797 186.512C84.117 172.932 95.497 158.502 116.097 136.702ZM77.787 186.872C88.267 172.512 98.947 160.632 119.777 138.572ZM77.787 186.872C89.887 172.972 101.187 160.942 119.777 138.572ZM83.427 186.482C94.117 173.652 107.817 158.362 123.447 140.442ZM83.427 186.482C95.137 172.462 107.137 158.262 123.447 140.442ZM88.417 186.842C102.967 171.102 116.497 154.772 124.497 145.332ZM88.417 186.842C100.007 171.682 112.267 158.762 124.497 145.332ZM93.407 187.202C103.357 176.412 113.217 166.332 126.207 149.462ZM93.407 187.202C106.147 174.632 117.657 159.362 126.207 149.462ZM99.047 186.802C107.187 176.812 115.597 168.702 125.947 155.862ZM99.047 186.802C107.567 175.712 118.167 165.572 125.947 155.862ZM104.037 187.162C110.767 179.202 121.727 168.722 125.687 162.262ZM104.037 187.162C109.657 180.112 115.747 173.042 125.687 162.262ZM109.677 186.772C112.277 180.382 119.637 175.892 126.077 167.902ZM109.677 186.772C113.667 182.492 116.327 178.272 126.077 167.902ZM114.007 187.882C116.237 185.332 121.997 180.722 124.507 175.812ZM114.007 187.882C116.487 184.542 118.047 181.932 124.507 175.812ZM70.747 185.042C67.117 182.422 64.597 180.212 59.427 175.202ZM70.747 185.042C68.197 182.802 65.057 180.362 59.427 175.202ZM77.147 185.302C73.927 182.342 69.927 178.842 59.027 169.552ZM77.147 185.302C72.777 182.942 69.507 179.032 59.027 169.552ZM82.787 184.902C79.717 181.952 72.927 174.812 59.387 164.572ZM82.787 184.902C74.697 177.962 63.737 169.042 59.387 164.572ZM89.187 185.162C79.037 177.542 72.387 169.392 58.997 158.922ZM89.187 185.162C77.117 174.312 66.227 165.022 58.997 158.922ZM95.587 185.432C82.647 176.552 69.497 163.412 59.357 153.942ZM95.587 185.432C83.557 174.672 72.107 164.762 59.357 153.942ZM101.227 185.032C84.387 169.822 70.597 158.702 58.967 148.292ZM101.227 185.032C89.477 176.592 80.037 165.872 58.967 148.292ZM107.627 185.292C98.207 177.502 85.907 167.642 59.327 143.312ZM107.627 185.292C89.077 169.962 72.167 153.902 59.327 143.312ZM112.517 184.242C97.217 169.752 79.117 153.562 61.197 139.632ZM112.517 184.242C93.077 168.302 74.747 150.142 61.197 139.632ZM116.647 182.542C100.137 166.572 83.967 152.322 63.817 136.612ZM116.647 182.542C104.127 170.422 91.537 159.772 63.817 136.612ZM121.537 181.482C104.137 162.892 84.637 148.612 68.707 135.562ZM121.537 181.482C107.597 168.852 92.817 157.432 68.707 135.562ZM123.407 177.812C108.637 164.592 97.527 156.712 72.087 133.202ZM123.407 177.812C111.067 165.922 96.047 154.702 72.087 133.202ZM125.277 174.142C106.617 161.192 91.977 144.352 78.477 133.462ZM125.277 174.142C115.437 165.482 104.887 156.312 78.477 133.462ZM124.877 168.492C108.897 155.232 94.087 141.722 84.877 133.722ZM124.877 168.492C115.927 159.842 106.797 151.482 84.877 133.722ZM125.237 163.502C111.307 154.092 99.937 142.572 90.527 133.332ZM125.237 163.502C115.347 154.432 105.507 145.622 90.527 133.332ZM125.597 158.522C117.847 152.092 113.297 148.592 96.917 133.592ZM125.597 158.522C116.727 150.752 106.417 141.222 96.917 133.592ZM125.207 152.872C120.447 149.542 114.227 144.612 102.567 133.192ZM125.207 152.872C117.147 146.612 109.447 139.492 102.567 133.192ZM124.807 147.232C122.867 145.642 117.367 141.732 108.957 133.452ZM124.807 147.232C118.097 143.232 113.847 137.622 108.957 133.452Z" stroke="#C0C0FF" stroke-width="0.5" stroke-linecap="round"/>
<path d="M70.687 135.422C80.857 134.472 89.567 133.362 111.507 135.422M70.687 135.422C86.287 135.012 102.307 135.732 111.507 135.422M70.687 135.422C60.437 135.142 59.847 140.562 58.227 147.882M70.687 135.422C61.647 133.682 57.077 137.372 58.227 147.882M111.507 135.422C118.137 136.252 122.687 139.742 123.967 147.882M111.507 135.422C120.417 137.712 123.267 141.532 123.967 147.882M123.967 147.882C124.997 157.932 124.887 167.132 123.967 172.812M123.967 147.882C123.017 154.972 123.097 162.472 123.967 172.812M123.967 172.812C122.467 181.402 119.027 187.232 111.507 185.282M123.967 172.812C125.667 181.942 121.627 183.412 111.507 185.282M111.507 185.282C97.357 185.112 80.967 184.492 70.687 185.282M111.507 185.282C99.497 185.442 86.107 185.772 70.687 185.282M70.687 185.282C63.667 185.572 60.127 182.892 58.227 172.812M70.687 185.282C61.797 186.012 59.877 183.132 58.227 172.812M58.227 172.812C59.867 161.832 56.717 154.352 58.227 147.882M58.227 172.812C58.137 167.382 57.757 163.062 58.227 147.882" stroke="black" stroke-linecap="round"/>
<path d="M59.4052 88.8012C61.0052 86.3312 64.9052 83.7612 65.3052 82.0112ZM59.4052 88.8012C61.6652 85.8312 63.4152 83.9112 65.3052 82.0112ZM59.1352 95.2012C65.5552 88.2012 69.7752 83.1112 72.2652 80.1012ZM59.1352 95.2012C63.7552 88.9312 68.4252 84.0112 72.2652 80.1012ZM59.5352 100.841C63.0152 94.9412 67.6952 91.0712 77.9052 79.7112ZM59.5352 100.841C63.5452 96.4612 69.0252 89.7812 77.9052 79.7112ZM59.2752 107.241C66.8152 102.451 69.6052 95.4312 82.8952 80.0712ZM59.2752 107.241C66.8852 100.021 73.0852 91.8612 82.8952 80.0712ZM59.6652 112.881C68.0652 104.161 73.8152 95.5712 88.5352 79.6812ZM59.6652 112.881C68.5452 102.421 78.9652 90.8812 88.5352 79.6812ZM59.4052 119.281C69.3652 106.821 84.0152 90.9212 93.5252 80.0412ZM59.4052 119.281C66.8652 110.431 72.2152 104.181 93.5252 80.0412ZM61.1152 123.411C70.4752 112.081 83.5452 99.8212 99.1652 79.6412ZM61.1152 123.411C74.2252 109.351 86.0452 96.4312 99.1652 79.6412ZM63.4752 126.791C78.5352 107.351 95.8352 87.5012 104.155 80.0012ZM63.4752 126.791C72.0452 115.761 81.4452 104.731 104.155 80.0012ZM67.1452 128.661C78.6852 116.581 88.3452 103.301 111.105 78.1012ZM67.1452 128.661C85.6352 108.361 102.525 89.4012 111.105 78.1012ZM72.1352 129.021C82.7852 117.941 90.9852 107.181 115.435 79.2112ZM72.1352 129.021C82.3252 116.961 92.9252 104.591 115.435 79.2112ZM77.1252 129.381C91.5552 112.361 102.865 96.4012 119.115 81.0812ZM77.1252 129.381C91.5852 114.001 104.715 98.5412 119.115 81.0812ZM82.7652 128.991C94.4652 116.361 109.345 101.371 122.785 82.9512ZM82.7652 128.991C91.8952 117.621 101.585 106.611 122.785 82.9512ZM87.7552 129.351C102.485 112.231 114.395 99.1512 123.835 87.8412ZM87.7552 129.351C99.5452 114.851 112.355 102.331 123.835 87.8412ZM92.7452 129.711C101.955 117.251 112.815 105.651 125.545 91.9712ZM92.7452 129.711C101.265 119.371 108.315 111.641 125.545 91.9712ZM98.3852 129.311C106.715 123.081 111.285 114.111 125.285 98.3712ZM98.3852 129.311C105.115 121.831 111.105 116.511 125.285 98.3712ZM103.375 129.671C110.785 122.061 115.965 112.101 125.025 104.771ZM103.375 129.671C108.835 123.891 112.385 118.601 125.025 104.771ZM109.015 129.281C113.545 122.391 120.405 119.651 125.415 110.411ZM109.015 129.281C112.365 124.211 118.025 119.881 125.415 110.411ZM113.345 130.391C116.975 126.151 122.145 120.691 123.845 118.321ZM113.345 130.391C117.395 126.551 120.455 122.411 123.845 118.321ZM70.0852 127.551C67.9552 126.911 66.5252 121.961 58.7652 117.711ZM70.0852 127.551C66.7352 124.461 63.8052 122.521 58.7652 117.711ZM76.4852 127.811C70.6452 122.351 64.3952 118.961 58.3652 112.061ZM76.4852 127.811C72.2852 123.181 66.8552 118.201 58.3652 112.061ZM82.1252 127.411C74.8552 123.151 71.5452 119.941 58.7252 107.081ZM82.1252 127.411C73.8852 118.901 62.9052 112.061 58.7252 107.081ZM88.5252 127.671C79.8552 116.651 69.5352 110.911 58.3352 101.431ZM88.5252 127.671C80.7952 121.371 72.7952 113.441 58.3352 101.431ZM94.9252 127.941C81.5052 115.521 69.5652 106.491 58.6952 96.4512ZM94.9252 127.941C83.0452 119.141 73.3152 108.951 58.6952 96.4512ZM100.565 127.541C90.0652 118.281 82.3752 111.721 58.3052 90.8012ZM100.565 127.541C90.3352 118.521 77.4652 109.291 58.3052 90.8012ZM106.965 127.801C94.2652 119.001 82.7552 109.341 58.6652 85.8212ZM106.965 127.801C92.7552 116.001 78.2452 103.831 58.6652 85.8212ZM111.855 126.751C95.1952 111.931 78.7152 96.5712 60.5352 82.1412ZM111.855 126.751C92.5952 108.571 71.8452 92.5312 60.5352 82.1412ZM115.985 125.051C96.8152 108.581 74.9952 88.1512 63.1552 79.1212ZM115.985 125.051C99.0452 108.721 81.1252 94.6112 63.1552 79.1212ZM120.875 123.991C106.085 112.281 92.7452 98.4312 68.0452 78.0712ZM120.875 123.991C107.545 112.381 93.5352 100.771 68.0452 78.0712ZM122.745 120.321C109.605 109.831 97.3352 99.5712 71.4252 75.7112ZM122.745 120.321C108.455 107.811 96.3452 96.7012 71.4252 75.7112ZM124.615 116.651C109.115 102.331 90.3952 88.5212 77.8152 75.9712ZM124.615 116.651C111.855 105.021 99.7452 94.9812 77.8152 75.9712ZM124.215 111.001C109.185 100.471 98.6752 86.9112 84.2152 76.2312ZM124.215 111.001C116.145 104.341 108.225 96.5612 84.2152 76.2312ZM124.575 106.011C112.595 93.8912 101.055 83.2012 89.8652 75.8412ZM124.575 106.011C116.165 98.3612 106.085 88.8612 89.8652 75.8412ZM124.935 101.031C117.955 91.8112 109.235 87.4512 96.2552 76.1012ZM124.935 101.031C116.195 93.5912 105.385 85.2112 96.2552 76.1012ZM124.545 95.3812C119.625 91.9012 113.965 89.1312 101.905 75.7012ZM124.545 95.3812C116.545 89.0212 109.935 83.4012 101.905 75.7012ZM124.145 89.7412C121.525 85.8312 116.305 83.5612 108.295 75.9612ZM124.145 89.7412C118.055 84.4912 112.665 80.6712 108.295 75.9612Z" stroke="#C0C0FF" stroke-width="0.5" stroke-linecap="round"/>
<path d="M70.0251 77.9312C79.7051 77.4512 90.7851 79.7112 110.845 77.9312M70.0251 77.9312C84.3751 79.0412 97.3451 78.6212 110.845 77.9312M70.0251 77.9312C62.3951 76.5612 58.2651 82.3812 57.5651 90.3912M70.0251 77.9312C62.2351 77.0812 58.8051 83.3612 57.5651 90.3912M110.845 77.9312C119.015 77.1512 122.545 82.4512 123.305 90.3912M110.845 77.9312C120.485 78.5312 125.565 82.2212 123.305 90.3912M123.305 90.3912C123.695 101.221 125.165 107.741 123.305 115.321M123.305 90.3912C124.435 97.8712 123.405 107.671 123.305 115.321M123.305 115.321C122.165 121.921 120.385 125.821 110.845 127.791M123.305 115.321C123.035 121.861 118.885 126.831 110.845 127.791M110.845 127.791C101.615 126.171 90.1251 127.121 70.0251 127.791M110.845 127.791C102.595 128.231 94.4251 127.941 70.0251 127.791M70.0251 127.791C61.0751 128.591 57.4351 122.181 57.5651 115.321M70.0251 127.791C60.4551 130.051 56.6051 124.021 57.5651 115.321M57.5651 115.321C56.1351 109.341 57.6251 101.391 57.5651 90.3912M57.5651 115.321C57.1951 108.511 57.2951 101.951 57.5651 90.3912" stroke="black" stroke-linecap="round"/>
<path d="M10.002 12.7699C18.992 21.5399 56.022 56.5699 65.082 65.3399M11.952 11.8099C20.762 20.6899 55.732 57.2599 64.312 66.3099" stroke="black" stroke-linecap="round"/>
<path d="M37.722 53.5499C45.122 57.1599 54.602 63.1799 64.412 65.7199M36.522 53.6399C47.402 57.3799 55.502 62.1799 65.262 66.8099" stroke="black" stroke-linecap="round"/>
<path d="M52.5821 39.3899C54.7421 47.9399 58.9921 58.9499 64.4121 65.7199M51.3721 39.4799C57.1021 48.1799 59.9621 57.9799 65.2621 66.8099" stroke="black" stroke-linecap="round"/>
<path d="M120.747 65.3039C128.377 56.3539 159.707 19.2039 167.337 10.0039M119.277 64.6039C126.737 55.9439 159.007 20.4139 166.747 11.5639" stroke="black" stroke-linecap="round"/>
<path d="M156.707 40.5539C160.007 29.0639 164.247 17.9139 168.607 13.4939M155.687 39.7339C159.457 31.2239 162.977 21.2439 165.837 11.1839" stroke="black" stroke-linecap="round"/>
<path d="M141.397 26.8839C150.177 20.3939 160.007 14.2339 168.607 13.4939M140.377 26.0639C149.087 21.8539 157.487 16.2439 165.837 11.1839" stroke="black" stroke-linecap="round"/>
<path d="M74.5624 276.388L73.0567 276.814C72.962 276.563 72.8223 276.319 72.6377 276.082C72.4577 275.841 72.2115 275.642 71.899 275.486C71.5865 275.329 71.1864 275.251 70.6988 275.251C70.0311 275.251 69.4748 275.405 69.0297 275.713C68.5894 276.016 68.3692 276.402 68.3692 276.871C68.3692 277.287 68.5207 277.616 68.8238 277.858C69.1268 278.099 69.6003 278.301 70.2442 278.462L71.8635 278.859C72.8389 279.096 73.5657 279.458 74.0439 279.946C74.5221 280.429 74.7613 281.051 74.7613 281.814C74.7613 282.439 74.5813 282.997 74.2215 283.49C73.8664 283.982 73.3692 284.371 72.73 284.655C72.0908 284.939 71.3474 285.081 70.4999 285.081C69.3872 285.081 68.4663 284.839 67.7371 284.356C67.0079 283.873 66.5463 283.168 66.3522 282.24L67.9431 281.842C68.0946 282.429 68.381 282.87 68.8024 283.163C69.2286 283.457 69.7849 283.604 70.4715 283.604C71.2527 283.604 71.873 283.438 72.3323 283.106C72.7963 282.77 73.0283 282.368 73.0283 281.899C73.0283 281.52 72.8957 281.203 72.6306 280.947C72.3654 280.687 71.9582 280.493 71.409 280.365L69.5908 279.939C68.5917 279.702 67.8578 279.335 67.3891 278.838C66.9251 278.336 66.6931 277.709 66.6931 276.956C66.6931 276.34 66.8659 275.796 67.2115 275.322C67.5619 274.849 68.0378 274.477 68.6391 274.207C69.2452 273.937 69.9317 273.802 70.6988 273.802C71.7783 273.802 72.6258 274.039 73.2414 274.513C73.8616 274.986 74.302 275.611 74.5624 276.388ZM82.0287 273.944V275.365H76.3752V273.944H82.0287ZM78.023 271.331H79.6991V281.729C79.6991 282.202 79.7678 282.557 79.9051 282.794C80.0471 283.026 80.227 283.182 80.4448 283.263C80.6674 283.338 80.9018 283.376 81.148 283.376C81.3326 283.376 81.4841 283.367 81.6025 283.348C81.7209 283.324 81.8156 283.305 81.8866 283.291L82.2275 284.797C82.1139 284.839 81.9553 284.882 81.7517 284.925C81.5481 284.972 81.29 284.996 80.9775 284.996C80.504 284.996 80.04 284.894 79.5855 284.69C79.1357 284.487 78.7616 284.176 78.4633 283.76C78.1698 283.343 78.023 282.818 78.023 282.183V271.331ZM87.7602 285.109C87.0689 285.109 86.4415 284.979 85.8781 284.719C85.3146 284.453 84.8672 284.072 84.5358 283.575C84.2043 283.073 84.0386 282.467 84.0386 281.757C84.0386 281.132 84.1617 280.625 84.4079 280.237C84.6541 279.844 84.9832 279.536 85.3951 279.314C85.8071 279.091 86.2616 278.926 86.7588 278.817C87.2607 278.703 87.7649 278.613 88.2716 278.547C88.9344 278.462 89.4718 278.398 89.8838 278.355C90.3004 278.308 90.6035 278.229 90.7929 278.121C90.987 278.012 91.0841 277.822 91.0841 277.552V277.496C91.0841 276.795 90.8923 276.25 90.5088 275.862C90.13 275.474 89.5547 275.28 88.7829 275.28C87.9827 275.28 87.3554 275.455 86.9008 275.805C86.4463 276.156 86.1267 276.53 85.942 276.927L84.3511 276.359C84.6352 275.696 85.014 275.18 85.4875 274.811C85.9657 274.437 86.4865 274.176 87.05 274.03C87.6181 273.878 88.1769 273.802 88.7261 273.802C89.0765 273.802 89.4789 273.845 89.9335 273.93C90.3928 274.011 90.8355 274.179 91.2616 274.435C91.6925 274.69 92.05 275.076 92.3341 275.592C92.6181 276.108 92.7602 276.8 92.7602 277.666V284.854H91.0841V283.376H90.9988C90.8852 283.613 90.6958 283.866 90.4306 284.136C90.1655 284.406 89.8127 284.636 89.3724 284.825C88.9321 285.015 88.3947 285.109 87.7602 285.109ZM88.0159 283.604C88.6787 283.604 89.2375 283.473 89.692 283.213C90.1513 282.953 90.4969 282.616 90.7289 282.204C90.9657 281.792 91.0841 281.359 91.0841 280.905V279.371C91.013 279.456 90.8568 279.534 90.6153 279.605C90.3786 279.671 90.1039 279.73 89.7914 279.783C89.4837 279.83 89.183 279.872 88.8894 279.91C88.6006 279.944 88.3662 279.972 88.1863 279.996C87.7507 280.052 87.3435 280.145 86.9647 280.273C86.5907 280.396 86.2876 280.583 86.0556 280.834C85.8284 281.08 85.7147 281.416 85.7147 281.842C85.7147 282.425 85.9302 282.865 86.361 283.163C86.7966 283.457 87.3483 283.604 88.0159 283.604ZM100.251 285.081C99.2286 285.081 98.3479 284.839 97.6093 284.356C96.8706 283.873 96.3024 283.208 95.9047 282.361C95.507 281.513 95.3081 280.545 95.3081 279.456C95.3081 278.348 95.5117 277.37 95.9189 276.523C96.3309 275.67 96.9038 275.005 97.6377 274.527C98.3763 274.044 99.2381 273.802 100.223 273.802C100.99 273.802 101.681 273.944 102.297 274.229C102.912 274.513 103.417 274.91 103.81 275.422C104.203 275.933 104.446 276.53 104.541 277.212H102.865C102.737 276.714 102.453 276.274 102.013 275.89C101.577 275.502 100.99 275.308 100.251 275.308C99.5979 275.308 99.025 275.479 98.5326 275.819C98.0449 276.156 97.6637 276.631 97.3891 277.247C97.1192 277.858 96.9843 278.575 96.9843 279.399C96.9843 280.242 97.1168 280.976 97.382 281.601C97.6519 282.226 98.0307 282.711 98.5184 283.057C99.0108 283.402 99.5884 283.575 100.251 283.575C100.687 283.575 101.082 283.499 101.437 283.348C101.793 283.196 102.093 282.979 102.339 282.694C102.586 282.41 102.761 282.069 102.865 281.672H104.541C104.446 282.316 104.212 282.896 103.838 283.412C103.469 283.923 102.979 284.33 102.368 284.633C101.762 284.932 101.056 285.081 100.251 285.081ZM108.554 280.876L108.525 278.802H108.866L113.639 273.944H115.713L110.628 279.087H110.486L108.554 280.876ZM106.991 284.854V270.308H108.668V284.854H106.991ZM113.923 284.854L109.662 279.456L110.855 278.291L116.054 284.854H113.923Z" fill="black"/>
<path d="M273.398 259.033C291.548 259.033 363.628 259.883 381.208 259.803M271.958 258.133C290.148 258.343 362.658 257.953 380.868 258.223" stroke="black" stroke-linecap="round"/>
<path d="M268.39 70.9447C286.41 70.9547 357.67 70.7847 375.51 70.7947M267.15 69.7447C285.14 69.9647 357.02 71.6847 375 72.1047" stroke="black" stroke-linecap="round"/>
<path d="M302.988 282.344C302.297 282.344 301.669 282.214 301.106 281.954C300.542 281.689 300.095 281.307 299.764 280.81C299.432 280.308 299.266 279.702 299.266 278.992C299.266 278.367 299.389 277.86 299.636 277.472C299.882 277.079 300.211 276.771 300.623 276.549C301.035 276.326 301.489 276.161 301.987 276.052C302.488 275.938 302.993 275.848 303.499 275.782C304.162 275.697 304.7 275.633 305.112 275.59C305.528 275.543 305.831 275.465 306.021 275.356C306.215 275.247 306.312 275.057 306.312 274.788V274.731C306.312 274.03 306.12 273.485 305.737 273.097C305.358 272.709 304.782 272.515 304.011 272.515C303.211 272.515 302.583 272.69 302.129 273.04C301.674 273.391 301.354 273.765 301.17 274.163L299.579 273.594C299.863 272.931 300.242 272.415 300.715 272.046C301.193 271.672 301.714 271.412 302.278 271.265C302.846 271.113 303.405 271.038 303.954 271.038C304.304 271.038 304.707 271.08 305.161 271.165C305.621 271.246 306.063 271.414 306.489 271.67C306.92 271.925 307.278 272.311 307.562 272.827C307.846 273.343 307.988 274.035 307.988 274.901V282.089H306.312V280.611H306.227C306.113 280.848 305.924 281.101 305.658 281.371C305.393 281.641 305.041 281.871 304.6 282.06C304.16 282.25 303.622 282.344 302.988 282.344ZM303.244 280.839C303.907 280.839 304.465 280.708 304.92 280.448C305.379 280.188 305.725 279.851 305.957 279.44C306.193 279.028 306.312 278.594 306.312 278.14V276.606C306.241 276.691 306.085 276.769 305.843 276.84C305.606 276.906 305.332 276.966 305.019 277.018C304.711 277.065 304.411 277.108 304.117 277.146C303.828 277.179 303.594 277.207 303.414 277.231C302.979 277.288 302.571 277.38 302.193 277.508C301.818 277.631 301.515 277.818 301.283 278.069C301.056 278.315 300.943 278.651 300.943 279.077C300.943 279.66 301.158 280.1 301.589 280.398C302.024 280.692 302.576 280.839 303.244 280.839ZM311.047 282.089V271.18H312.667V272.827H312.78C312.979 272.288 313.339 271.85 313.86 271.513C314.381 271.177 314.968 271.009 315.621 271.009C315.744 271.009 315.898 271.012 316.083 271.016C316.267 271.021 316.407 271.028 316.502 271.038V272.742C316.445 272.728 316.315 272.707 316.111 272.678C315.912 272.645 315.702 272.628 315.479 272.628C314.949 272.628 314.475 272.74 314.059 272.962C313.647 273.18 313.32 273.483 313.079 273.871C312.842 274.255 312.723 274.693 312.723 275.185V282.089H311.047ZM318.489 282.089V271.18H320.108V272.827H320.222C320.42 272.288 320.78 271.85 321.301 271.513C321.822 271.177 322.409 271.009 323.063 271.009C323.186 271.009 323.34 271.012 323.524 271.016C323.709 271.021 323.849 271.028 323.943 271.038V272.742C323.886 272.728 323.756 272.707 323.553 272.678C323.354 272.645 323.143 272.628 322.92 272.628C322.39 272.628 321.917 272.74 321.5 272.962C321.088 273.18 320.761 273.483 320.52 273.871C320.283 274.255 320.165 274.693 320.165 275.185V282.089H318.489ZM329.14 282.344C328.449 282.344 327.822 282.214 327.258 281.954C326.695 281.689 326.247 281.307 325.916 280.81C325.584 280.308 325.419 279.702 325.419 278.992C325.419 278.367 325.542 277.86 325.788 277.472C326.034 277.079 326.363 276.771 326.775 276.549C327.187 276.326 327.642 276.161 328.139 276.052C328.641 275.938 329.145 275.848 329.652 275.782C330.315 275.697 330.852 275.633 331.264 275.59C331.681 275.543 331.984 275.465 332.173 275.356C332.367 275.247 332.464 275.057 332.464 274.788V274.731C332.464 274.03 332.272 273.485 331.889 273.097C331.51 272.709 330.935 272.515 330.163 272.515C329.363 272.515 328.735 272.69 328.281 273.04C327.826 273.391 327.507 273.765 327.322 274.163L325.731 273.594C326.015 272.931 326.394 272.415 326.868 272.046C327.346 271.672 327.867 271.412 328.43 271.265C328.998 271.113 329.557 271.038 330.106 271.038C330.457 271.038 330.859 271.08 331.314 271.165C331.773 271.246 332.216 271.414 332.642 271.67C333.073 271.925 333.43 272.311 333.714 272.827C333.998 273.343 334.14 274.035 334.14 274.901V282.089H332.464V280.611H332.379C332.265 280.848 332.076 281.101 331.811 281.371C331.546 281.641 331.193 281.871 330.753 282.06C330.312 282.25 329.775 282.344 329.14 282.344ZM329.396 280.839C330.059 280.839 330.618 280.708 331.072 280.448C331.531 280.188 331.877 279.851 332.109 279.44C332.346 279.028 332.464 278.594 332.464 278.14V276.606C332.393 276.691 332.237 276.769 331.995 276.84C331.759 276.906 331.484 276.966 331.172 277.018C330.864 277.065 330.563 277.108 330.27 277.146C329.981 277.179 329.746 277.207 329.566 277.231C329.131 277.288 328.724 277.38 328.345 277.508C327.971 277.631 327.668 277.818 327.436 278.069C327.208 278.315 327.095 278.651 327.095 279.077C327.095 279.66 327.31 280.1 327.741 280.398C328.177 280.692 328.728 280.839 329.396 280.839ZM337.889 286.18C337.604 286.18 337.351 286.156 337.129 286.109C336.906 286.066 336.752 286.023 336.667 285.981L337.093 284.503C337.5 284.608 337.86 284.646 338.173 284.617C338.485 284.589 338.762 284.449 339.004 284.198C339.25 283.952 339.475 283.552 339.678 282.998L339.991 282.146L335.957 271.18H337.775L340.786 279.873H340.9L343.911 271.18H345.729L341.099 283.68C340.89 284.243 340.632 284.709 340.325 285.079C340.017 285.453 339.659 285.73 339.252 285.91C338.85 286.09 338.395 286.18 337.889 286.18Z" fill="black"/>
<path d="M291.884 208.649C294.204 206.119 296.804 204.139 297.784 201.859ZM291.884 208.649C293.954 206.799 295.674 204.249 297.784 201.859ZM291.614 215.049C295.494 211.109 298.264 206.889 304.744 199.949ZM291.614 215.049C296.584 209.889 301.904 203.899 304.744 199.949ZM292.014 220.689C294.794 216.939 302.194 211.969 310.384 199.559ZM292.014 220.689C297.794 212.229 305.784 204.779 310.384 199.559ZM291.754 227.089C295.744 219.179 301.484 214.009 315.374 199.919ZM291.754 227.089C297.214 221.269 301.434 215.749 315.374 199.919ZM292.144 232.729C299.964 225.249 305.854 216.389 321.014 199.529ZM292.144 232.729C298.864 224.279 305.804 217.879 321.014 199.529ZM291.884 239.129C305.134 226.979 314.714 213.619 326.004 199.889ZM291.884 239.129C299.484 230.309 307.844 219.769 326.004 199.889ZM293.594 243.259C304.104 228.939 316.974 217.549 331.644 199.489ZM293.594 243.259C303.474 232.069 314.324 220.389 331.644 199.489ZM295.954 246.639C305.964 236.089 315.614 221.609 336.634 199.849ZM295.954 246.639C308.604 231.249 322.234 214.309 336.634 199.849ZM299.624 248.509C308.494 238.339 318.314 225.699 343.584 197.949ZM299.624 248.509C313.624 232.769 325.824 217.469 343.584 197.949ZM304.614 248.869C313.844 234.449 326.854 221.679 347.914 199.059ZM304.614 248.869C316.084 235.749 326.104 222.429 347.914 199.059ZM309.604 249.229C325.594 231.789 341.904 213.849 351.594 200.929ZM309.604 249.229C325.574 230.189 343.054 212.199 351.594 200.929ZM315.244 248.839C327.214 236.269 336.224 223.739 355.264 202.799ZM315.244 248.839C329.274 231.779 343.334 215.469 355.264 202.799ZM320.234 249.199C333.224 233.489 348.474 217.959 356.314 207.689ZM320.234 249.199C332.974 235.999 344.904 222.099 356.314 207.689ZM325.224 249.559C331.564 240.179 336.764 235.119 358.024 211.819ZM325.224 249.559C332.734 240.219 340.704 232.189 358.024 211.819ZM330.864 249.159C341.384 238.009 351.404 224.439 357.764 218.219ZM330.864 249.159C338.624 239.039 348.254 230.419 357.764 218.219ZM335.854 249.519C341.824 240.629 349.604 235.509 357.504 224.619ZM335.854 249.519C342.044 244.489 347.084 236.429 357.504 224.619ZM341.494 249.129C344.764 244.309 347.964 242.219 357.894 230.259ZM341.494 249.129C346.684 243.679 351.834 239.099 357.894 230.259ZM345.824 250.239C349.424 245.069 351.694 240.239 356.324 238.169ZM345.824 250.239C349.684 246.229 351.754 243.679 356.324 238.169ZM302.564 247.399C299.194 244.519 294.644 242.109 291.244 237.559ZM302.564 247.399C297.814 243.959 294.734 240.159 291.244 237.559ZM308.964 247.659C302.184 245.139 300.984 237.369 290.844 231.909ZM308.964 247.659C303.644 241.929 298.094 236.669 290.844 231.909ZM314.604 247.259C306.494 241.989 301.154 234.459 291.204 226.929ZM314.604 247.259C308.894 241.949 304.974 238.549 291.204 226.929ZM321.004 247.519C312.444 241.309 303.694 234.819 290.814 221.279ZM321.004 247.519C309.574 236.869 297.084 227.789 290.814 221.279ZM327.404 247.789C312.844 235.959 300.954 225.479 291.174 216.299ZM327.404 247.789C316.864 238.939 306.614 229.879 291.174 216.299ZM333.044 247.389C322.574 237.849 311.594 228.859 290.784 210.649ZM333.044 247.389C317.114 232.819 300.894 218.179 290.784 210.649ZM339.444 247.649C320.064 233.069 305.654 216.559 291.144 205.669ZM339.444 247.649C323.594 234.379 307.994 218.879 291.144 205.669ZM344.334 246.599C324.534 230.249 302.964 210.239 293.014 201.989ZM344.334 246.599C324.724 229.429 304.064 211.839 293.014 201.989ZM348.464 244.899C329.094 227.779 310.834 211.749 295.634 198.969ZM348.464 244.899C333.294 232.109 320.204 220.089 295.634 198.969ZM353.354 243.839C335.714 227.019 318.264 213.949 300.524 197.919ZM353.354 243.839C334.264 226.279 313.034 209.769 300.524 197.919ZM355.224 240.169C337.724 225.149 317.824 208.659 303.904 195.559ZM355.224 240.169C338.714 226.029 322.864 211.359 303.904 195.559ZM357.094 236.499C348.624 228.799 337.384 217.099 310.294 195.819ZM357.094 236.499C341.624 223.169 326.304 210.629 310.294 195.819ZM356.694 230.849C341.994 218.959 328.974 206.109 316.694 196.079ZM356.694 230.849C347.454 223.039 338.354 213.539 316.694 196.079ZM357.054 225.859C348.694 216.119 335.774 209.679 322.344 195.689ZM357.054 225.859C345.924 215.639 333.004 204.099 322.344 195.689ZM357.414 220.879C346.934 210.839 336.434 202.669 328.734 195.949ZM357.414 220.879C349.994 213.919 341.074 206.959 328.734 195.949ZM357.024 215.229C349.554 207.189 343.084 200.589 334.384 195.549ZM357.024 215.229C351.754 210.049 346.344 206.519 334.384 195.549ZM356.624 209.589C351.504 205.999 350.054 204.329 340.774 195.809ZM356.624 209.589C352.894 205.729 348.564 203.439 340.774 195.809Z" stroke="#C0C0FF" stroke-width="0.5" stroke-linecap="round"/>
<path d="M302.504 197.779C317.954 198.039 334.864 197.019 343.324 197.779M302.504 197.779C318.214 197.499 334.094 197.649 343.324 197.779M302.504 197.779C294.584 199.109 290.564 203.109 290.044 210.239M302.504 197.779C294.434 196.409 288.384 200.579 290.044 210.239M343.324 197.779C353.614 198.059 355.954 200.289 355.784 210.239M343.324 197.779C350.494 195.569 357.584 200.209 355.784 210.239M355.784 210.239C357.604 217.199 355.794 226.829 355.784 235.169M355.784 210.239C355.614 219.249 355.324 230.059 355.784 235.169M355.784 235.169C355.534 245.009 351.514 248.829 343.324 247.639M355.784 235.169C356.304 244.819 352.504 249.099 343.324 247.639M343.324 247.639C329.964 248.259 316.714 247.379 302.504 247.639M343.324 247.639C331.914 247.089 320.694 248.599 302.504 247.639M302.504 247.639C294.384 249.449 291.274 243.209 290.044 235.169M302.504 247.639C296.084 248.119 289.414 244.799 290.044 235.169M290.044 235.169C288.854 230.259 288.344 223.359 290.044 210.239M290.044 235.169C289.314 227.759 290.554 222.969 290.044 210.239" stroke="black" stroke-linecap="round"/>
<path d="M290.884 93.9028C293.264 92.3428 294.264 90.4528 296.784 87.1128ZM290.884 93.9028C292.314 92.1328 293.224 90.4628 296.784 87.1128ZM290.614 100.303C296.294 93.2228 301.754 87.0528 303.744 85.2028ZM290.614 100.303C294.904 95.8128 297.364 91.5828 303.744 85.2028ZM291.014 105.943C296.824 102.173 300.714 98.0828 309.384 84.8128ZM291.014 105.943C299.114 97.2228 304.604 90.0428 309.384 84.8128ZM290.754 112.343C298.494 102.203 307.664 89.4328 314.374 85.1728ZM290.754 112.343C296.584 105.043 303.154 96.7828 314.374 85.1728ZM291.144 117.983C299.174 107.713 305.344 99.4828 320.014 84.7828ZM291.144 117.983C297.784 111.203 304.604 102.183 320.014 84.7828ZM290.884 124.383C298.374 115.373 304.794 108.253 325.004 85.1428ZM290.884 124.383C300.254 112.853 309.844 101.413 325.004 85.1428ZM292.594 128.513C305.924 114.473 316.044 101.383 330.644 84.7428ZM292.594 128.513C301.914 118.573 310.404 107.633 330.644 84.7428ZM294.954 131.893C310.554 111.703 327.154 96.9928 335.634 85.1028ZM294.954 131.893C308.794 114.643 323.014 99.7828 335.634 85.1028ZM298.624 133.763C310.644 118.963 322.344 105.313 342.584 83.2028ZM298.624 133.763C309.134 120.303 321.124 108.183 342.584 83.2028ZM303.614 134.123C313.544 122.043 322.834 112.773 346.914 84.3128ZM303.614 134.123C315.174 119.153 329.644 105.713 346.914 84.3128ZM308.604 134.483C324.054 118.773 339.894 99.0628 350.594 86.1828ZM308.604 134.483C318.184 124.853 326.804 113.623 350.594 86.1828ZM314.244 134.093C323.774 121.643 334.404 109.943 354.264 88.0528ZM314.244 134.093C326.844 118.693 341.184 104.183 354.264 88.0528ZM319.234 134.453C333.284 119.763 347.344 102.303 355.314 92.9428ZM319.234 134.453C334.104 118.183 346.474 101.903 355.314 92.9428ZM324.224 134.813C335.524 121.443 348.564 103.643 357.024 97.0728ZM324.224 134.813C337.534 120.133 350.234 105.403 357.024 97.0728ZM329.864 134.413C335.924 125.893 344.604 117.133 356.764 103.473ZM329.864 134.413C340.374 124.003 349.444 111.363 356.764 103.473ZM334.854 134.773C344.954 125.203 350.554 114.493 356.504 109.873ZM334.854 134.773C340.194 127.733 344.174 122.083 356.504 109.873ZM340.494 134.383C344.814 129.953 351.324 120.243 356.894 115.513ZM340.494 134.383C345.654 130.043 349.544 125.153 356.894 115.513ZM344.824 135.493C347.434 129.473 352.564 124.973 355.324 123.423ZM344.824 135.493C348.384 131.553 352.134 126.683 355.324 123.423ZM301.564 132.653C297.414 130.633 296.514 126.883 290.244 122.813ZM301.564 132.653C298.884 129.893 294.504 126.673 290.244 122.813ZM307.964 132.913C304.344 126.433 297.474 121.623 289.844 117.163ZM307.964 132.913C303.724 127.813 297.994 125.033 289.844 117.163ZM313.604 132.513C309.604 128.003 300.814 122.823 290.204 112.183ZM313.604 132.513C307.994 127.073 300.734 120.903 290.204 112.183ZM320.004 132.773C307.784 124.423 300.334 115.603 289.814 106.533ZM320.004 132.773C312.114 126.953 306.254 119.463 289.814 106.533ZM326.404 133.043C313.164 121.873 298.434 109.153 290.174 101.553ZM326.404 133.043C314.634 122.803 302.344 111.983 290.174 101.553ZM332.044 132.643C319.444 121.943 310.574 113.053 289.784 95.9028ZM332.044 132.643C323.244 124.163 313.574 117.153 289.784 95.9028ZM338.444 132.903C326.914 120.843 312.954 110.193 290.144 90.9228ZM338.444 132.903C326.664 121.893 314.784 112.823 290.144 90.9228ZM343.334 131.853C326.864 117.213 314.484 104.843 292.014 87.2428ZM343.334 131.853C325.864 117.143 309.154 102.763 292.014 87.2428ZM347.464 130.153C336.194 119.883 323.564 107.833 294.634 84.2228ZM347.464 130.153C334.764 119.173 320.454 107.043 294.634 84.2228ZM352.354 129.093C338.324 116.883 327.364 106.513 299.524 83.1728ZM352.354 129.093C337.434 117.283 325.034 104.773 299.524 83.1728ZM354.224 125.423C332.294 107.093 313.814 89.7928 302.904 80.8128ZM354.224 125.423C340.824 113.523 324.734 100.003 302.904 80.8128ZM356.094 121.753C343.324 109.313 331.534 101.083 309.294 81.0728ZM356.094 121.753C339.194 107.223 324.084 93.5128 309.294 81.0728ZM355.694 116.103C342.224 103.323 329.334 92.0628 315.694 81.3328ZM355.694 116.103C346.064 107.163 335.034 97.9128 315.694 81.3328ZM356.054 111.113C345.204 104.333 338.204 92.8128 321.344 80.9428ZM356.054 111.113C344.864 101.093 334.084 92.1728 321.344 80.9428ZM356.414 106.133C347.714 98.3528 335.514 88.8628 327.734 81.2028ZM356.414 106.133C347.854 99.0928 340.974 92.0928 327.734 81.2028ZM356.024 100.483C350.374 92.9528 340.884 89.1228 333.384 80.8028ZM356.024 100.483C346.724 92.4728 337.324 85.4128 333.384 80.8028ZM355.624 94.8428C352.484 92.4728 347.334 90.5028 339.774 81.0628ZM355.624 94.8428C351.594 92.1428 349.134 88.3728 339.774 81.0628Z" stroke="#C0C0FF" stroke-width="0.5" stroke-linecap="round"/>
<path d="M301.504 83.0328C319.384 82.5328 335.584 83.0828 342.324 83.0328M301.504 83.0328C314.204 83.0928 329.354 83.2428 342.324 83.0328M301.504 83.0328C291.754 81.8528 289.434 88.5228 289.044 95.4928M301.504 83.0328C292.624 82.7828 289.274 85.8228 289.044 95.4928M342.324 83.0328C350.804 81.3828 353.794 85.2728 354.784 95.4928M342.324 83.0328C352.434 81.3128 354.714 88.1828 354.784 95.4928M354.784 95.4928C354.894 106.323 356.724 113.253 354.784 120.423M354.784 95.4928C354.334 103.433 354.624 111.013 354.784 120.423M354.784 120.423C354.674 129.933 351.084 134.053 342.324 132.893M354.784 120.423C355.664 130.193 351.234 134.373 342.324 132.893M342.324 132.893C330.624 132.823 318.224 134.693 301.504 132.893M342.324 132.893C329.404 133.663 318.344 133.583 301.504 132.893M301.504 132.893C294.424 132.613 290.684 129.153 289.044 120.423M301.504 132.893C292.564 134.203 287.184 127.263 289.044 120.423M289.044 120.423C287.354 109.843 288.374 100.343 289.044 95.4928M289.044 120.423C289.664 114.173 289.504 107.143 289.044 95.4928" stroke="black" stroke-linecap="round"/>
<path d="M212.187 224.937C223.377 224.937 267.017 224.157 277.987 223.857M211.287 224.437C222.327 224.647 265.957 225.427 276.937 225.367" stroke="black" stroke-linecap="round"/>
<path d="M250.387 235.077C256.447 232.107 263.147 228.737 278.067 225.117M248.887 235.977C259.687 232.097 270.207 228.327 276.807 225.347" stroke="black" stroke-linecap="round"/>
<path d="M250.557 214.557C256.557 217.287 263.207 219.617 278.067 225.117M249.057 215.457C259.787 219.297 270.237 223.247 276.807 225.347" stroke="black" stroke-linecap="round"/>
<path d="M367.287 223.072C378.437 223.212 423.167 222.482 434.087 222.192M366.277 222.452C377.267 222.882 422.557 223.752 433.457 223.702" stroke="black" stroke-linecap="round"/>
<path d="M406.527 234.682C415.327 228.742 424.077 225.092 433.277 222.232M404.197 233.962C415.257 230.252 424.787 226.492 433.817 224.092" stroke="black" stroke-linecap="round"/>
<path d="M406.727 214.162C415.297 215.612 423.977 219.352 433.277 222.232M404.397 213.442C415.457 216.952 424.917 220.412 433.817 224.092" stroke="black" stroke-linecap="round"/>
</g>
<defs>
<clipPath id="clip0_220_3">
<rect width="444.089" height="302.854" fill="white"/>
</clipPath>
</defs>
</svg>
